<?xml version="1.0" encoding="UTF-8" standalone="no"?>
<!-- Created with Inkscape (http://www.inkscape.org/) -->

<svg
   xmlns:dc="http://purl.org/dc/elements/1.1/"
   xmlns:cc="http://creativecommons.org/ns#"
   xmlns:rdf="http://www.w3.org/1999/02/22-rdf-syntax-ns#"
   xmlns:svg="http://www.w3.org/2000/svg"
   xmlns="http://www.w3.org/2000/svg"
   xmlns:sodipodi="http://sodipodi.sourceforge.net/DTD/sodipodi-0.dtd"
   xmlns:inkscape="http://www.inkscape.org/namespaces/inkscape"
   width="9mm"
   height="9mm"
   viewBox="0 0 9.0000001 9"
   version="1.1"
   id="svg8"
   sodipodi:docname="actor_back.svg"
   inkscape:version="0.92.3 (2405546, 2018-03-11)">
  <defs
     id="defs2" />
  <sodipodi:namedview
     id="base"
     pagecolor="#ffffff"
     bordercolor="#666666"
     borderopacity="1.0"
     inkscape:pageopacity="0.0"
     inkscape:pageshadow="2"
     inkscape:zoom="11.2"
     inkscape:cx="7.1896764"
     inkscape:cy="15.722538"
     inkscape:document-units="mm"
     inkscape:current-layer="layer1"
     showgrid="false"
     inkscape:window-width="1299"
     inkscape:window-height="713"
     inkscape:window-x="67"
     inkscape:window-y="27"
     inkscape:window-maximized="1"
     fit-margin-top="0"
     fit-margin-left="0"
     fit-margin-right="0"
     fit-margin-bottom="0"
     showguides="true"
     inkscape:guide-bbox="true">
    <inkscape:grid
       type="xygrid"
       id="grid2484"
       spacingx="5.2916667"
       spacingy="5.2916667"
       originx="-3.3324272"
       originy="-4.46141" />
  </sodipodi:namedview>
  <metadata
     id="metadata5">
    <rdf:RDF>
      <cc:Work
         rdf:about="">
        <dc:format>image/svg+xml</dc:format>
        <dc:type
           rdf:resource="http://purl.org/dc/dcmitype/StillImage" />
        <dc:title></dc:title>
      </cc:Work>
    </rdf:RDF>
  </metadata>
  <g
     inkscape:label="Layer 1"
     inkscape:groupmode="layer"
     id="layer1"
     transform="translate(-0.54076059,-286.33029)">
    <g
       id="g2646"
       transform="matrix(0.26458333,0,0,0.26458333,0.66860459,286.43367)"
       style="fill:#000000;fill-opacity:1">
      <g
         id="g2589"
         style="fill:#000000;fill-opacity:1">
	<path
   id="path2585"
   d="m 20.626,33 h -8.253 c -0.276,0 -0.5,-0.224 -0.5,-0.5 V 22.799 H 11.76 c -1.47,0 -2.665,-1.195 -2.665,-2.665 v -6.442 c 0,-1.47 1.195,-2.665 2.665,-2.665 h 9.479 c 1.47,0 2.665,1.195 2.665,2.665 v 6.442 c 0,1.469 -1.195,2.665 -2.665,2.665 H 21.126 V 32.5 c 0,0.276 -0.223,0.5 -0.5,0.5 z m -7.752,-1 h 7.253 v -9.701 c 0,-0.276 0.224,-0.5 0.5,-0.5 h 0.613 c 0.918,0 1.665,-0.747 1.665,-1.665 v -6.442 c 0,-0.918 -0.747,-1.665 -1.665,-1.665 h -9.48 c -0.918,0 -1.665,0.747 -1.665,1.665 v 6.442 c 0,0.918 0.747,1.665 1.665,1.665 h 0.613 c 0.276,0 0.5,0.224 0.5,0.5 V 32 Z"
   inkscape:connector-curvature="0"
   style="fill:#000000;fill-opacity:1" />

	<path
   id="path2587"
   d="M 16.5,9.862 C 13.781,9.862 11.569,7.65 11.569,4.931 11.569,2.212 13.781,0 16.5,0 c 2.72,0 4.932,2.212 4.932,4.931 0,2.719 -2.213,4.931 -4.932,4.931 z M 16.5,1 c -2.167,0 -3.931,1.764 -3.931,3.931 0,2.167 1.764,3.931 3.931,3.931 2.168,0 3.932,-1.764 3.932,-3.931 C 20.432,2.764 18.667,1 16.5,1 Z"
   inkscape:connector-curvature="0"
   style="fill:#000000;fill-opacity:1" />

</g>
      <g
         id="g2591"
         style="fill:#000000;fill-opacity:1">
</g>
      <g
         id="g2593"
         style="fill:#000000;fill-opacity:1">
</g>
      <g
         id="g2595"
         style="fill:#000000;fill-opacity:1">
</g>
      <g
         id="g2597"
         style="fill:#000000;fill-opacity:1">
</g>
      <g
         id="g2599"
         style="fill:#000000;fill-opacity:1">
</g>
      <g
         id="g2601"
         style="fill:#000000;fill-opacity:1">
</g>
      <g
         id="g2603"
         style="fill:#000000;fill-opacity:1">
</g>
      <g
         id="g2605"
         style="fill:#000000;fill-opacity:1">
</g>
      <g
         id="g2607"
         style="fill:#000000;fill-opacity:1">
</g>
      <g
         id="g2609"
         style="fill:#000000;fill-opacity:1">
</g>
      <g
         id="g2611"
         style="fill:#000000;fill-opacity:1">
</g>
      <g
         id="g2613"
         style="fill:#000000;fill-opacity:1">
</g>
      <g
         id="g2615"
         style="fill:#000000;fill-opacity:1">
</g>
      <g
         id="g2617"
         style="fill:#000000;fill-opacity:1">
</g>
      <g
         id="g2619"
         style="fill:#000000;fill-opacity:1">
</g>
    </g>
    <path
       style="fill:#000000;fill-opacity:1;stroke:#000000;stroke-width:0;stroke-linecap:butt;stroke-linejoin:miter;stroke-miterlimit:4;stroke-dasharray:none;stroke-opacity:1"
       d="m 5.0416474,286.56596 0.5492467,0.15355 0.3543526,0.26577 0.059059,0.0827 0.064964,0.14174 c 0,0 0.070871,0.1004 0.088588,0.13584 0.017717,0.0354 0.053153,0.17717 0.053153,0.2008 0,0.0236 0.00591,0.15946 0.00591,0.15946 0,0 0.023625,0 0.00591,0.0591 -0.017717,0.0591 -0.023625,0.0472 -0.023625,0.1004 0,0.0532 -0.00591,0.1004 -0.023625,0.14175 -0.017716,0.0413 -0.023625,0.0827 -0.041341,0.12402 -0.017717,0.0413 0.00591,0.0295 -0.029529,0.0827 -0.035435,0.0531 -0.035435,0.065 -0.059059,0.11221 -0.023625,0.0472 0.017717,0.0472 -0.047247,0.0886 -0.064965,0.0413 -0.064965,0.0354 -0.1003998,0.0827 -0.035435,0.0472 -0.017717,0.0709 -0.047247,0.10631 -0.029529,0.0354 -0.011811,0.0295 -0.053153,0.0591 -0.041338,0.0295 -0.011809,0.006 -0.076774,0.0295 -0.064965,0.0236 0.1830821,-0.0295 -0.1122117,0.0472 -0.2952939,0.0768 -0.3484468,0.0827 -0.3484468,0.0827 0,0 -0.023624,0.0295 -0.047247,0.0413 -0.023623,0.0118 -0.07087,0.0295 -0.1122117,0.0295 -0.041341,0 -0.1417411,0.006 -0.1712704,0.006 -0.029529,0 -0.00591,0.0236 -0.082682,0 -0.076776,-0.0236 -0.1299293,-0.0413 -0.1830823,-0.065 -0.053153,-0.0236 -0.041341,-0.0295 -0.094494,-0.0473 -0.053153,-0.0177 -0.035435,-0.0236 -0.1003999,-0.0472 -0.064965,-0.0236 -0.064965,-0.0118 -0.082682,-0.0472 -0.017718,-0.0354 -0.029529,-0.0532 -0.070871,-0.1004 -0.041341,-0.0473 -0.023624,-0.0118 -0.076776,-0.0591 -0.053153,-0.0473 -0.029529,-0.006 -0.094494,-0.065 -0.064965,-0.0591 -0.076776,-0.0236 -0.1063058,-0.0945 -0.029529,-0.0709 0,-0.0118 -0.047247,-0.11221 -0.047247,-0.1004 -0.035435,-0.0413 -0.064965,-0.14174 -0.029529,-0.1004 -0.047247,-0.0768 -0.059059,-0.16537 -0.011812,-0.0886 -0.017718,-0.0709 -0.017718,-0.16536 0,-0.0945 -0.035435,-0.0827 0,-0.18899 0.035435,-0.10631 0.023623,-0.12402 0.047247,-0.17718 0.023624,-0.0531 0.029529,-0.0236 0.070871,-0.11221 0.041341,-0.0886 0.00591,-0.0768 0.064965,-0.15355 0.059059,-0.0768 0.076776,-0.0886 0.1063058,-0.14174 0.029529,-0.0532 0.053153,-0.11221 0.076776,-0.13584 0.023624,-0.0236 0.017718,-0.006 0.076776,-0.0472 0.059059,-0.0413 0.082682,-0.0354 0.1358352,-0.0591 0.053153,-0.0236 0.076776,0 0.1417411,-0.0473 0.064965,-0.0472 0.07087,-0.0295 0.147647,-0.0709 0.076776,-0.0413 0.064965,-0.0473 0.1299293,-0.065 0.064965,-0.0177 0.053153,-0.0177 0.1063058,-0.0177 0.053153,0 0.088588,-0.006 0.088588,-0.006 z"
       id="path2652"
       inkscape:connector-curvature="0" />
    <path
       style="fill:#000000;fill-opacity:1;stroke:#000000;stroke-width:0;stroke-linecap:butt;stroke-linejoin:miter;stroke-miterlimit:4;stroke-dasharray:none;stroke-opacity:1"
       d="m 6.0987995,289.50709 0.2834822,-0.0118 0.1771764,0.0591 0.1063059,0.16536 0.1299292,0.0473 c 0,0 0.023625,0.0709 0.047247,0.14174 0.023625,0.0709 0,2.10249 0,2.10249 l -0.1181174,0.12993 -0.1181177,0.10631 -0.1299292,0.0827 -0.3484467,0.0118 -0.00591,2.67536 -2.1792689,-0.006 -0.017718,-2.72261 -0.4075056,0.006 -0.2834821,-0.36026 -0.041341,-0.86816 0.032222,-1.10472 0.1252825,-0.30068 0.2171566,-0.15869 H 4.227591 Z"
       id="path2654"
       inkscape:connector-curvature="0" />
  </g>
</svg>
