<?xml version="1.0" encoding="UTF-8" standalone="no"?>
<!-- Created with Inkscape (http://www.inkscape.org/) -->

<svg
   xmlns:dc="http://purl.org/dc/elements/1.1/"
   xmlns:cc="http://creativecommons.org/ns#"
   xmlns:rdf="http://www.w3.org/1999/02/22-rdf-syntax-ns#"
   xmlns:svg="http://www.w3.org/2000/svg"
   xmlns="http://www.w3.org/2000/svg"
   xmlns:sodipodi="http://sodipodi.sourceforge.net/DTD/sodipodi-0.dtd"
   xmlns:inkscape="http://www.inkscape.org/namespaces/inkscape"
   width="9mm"
   height="9mm"
   viewBox="0 0 9.0000001 9"
   version="1.1"
   id="svg8"
   sodipodi:docname="actor2.svg"
   inkscape:version="0.92.3 (2405546, 2018-03-11)">
  <defs
     id="defs2" />
  <sodipodi:namedview
     id="base"
     pagecolor="#ffffff"
     bordercolor="#666666"
     borderopacity="1.0"
     inkscape:pageopacity="0.0"
     inkscape:pageshadow="2"
     inkscape:zoom="11.2"
     inkscape:cx="7.1896764"
     inkscape:cy="15.722538"
     inkscape:document-units="mm"
     inkscape:current-layer="layer1"
     showgrid="false"
     inkscape:window-width="1299"
     inkscape:window-height="713"
     inkscape:window-x="67"
     inkscape:window-y="27"
     inkscape:window-maximized="1"
     fit-margin-top="0"
     fit-margin-left="0"
     fit-margin-right="0"
     fit-margin-bottom="0"
     showguides="true"
     inkscape:guide-bbox="true">
    <inkscape:grid
       type="xygrid"
       id="grid2484"
       spacingx="5.2916667"
       spacingy="5.2916667"
       originx="-3.3324272"
       originy="-4.46141" />
  </sodipodi:namedview>
  <metadata
     id="metadata5">
    <rdf:RDF>
      <cc:Work
         rdf:about="">
        <dc:format>image/svg+xml</dc:format>
        <dc:type
           rdf:resource="http://purl.org/dc/dcmitype/StillImage" />
        <dc:title></dc:title>
      </cc:Work>
    </rdf:RDF>
  </metadata>
  <g
     inkscape:label="Layer 1"
     inkscape:groupmode="layer"
     id="layer1"
     transform="translate(-0.54076059,-286.33029)">
    <g
       id="g2646"
       transform="matrix(0.26458333,0,0,0.26458333,0.66860459,286.43367)"
       style="fill:#000000;fill-opacity:1">
      <g
         id="g2589"
         style="fill:#000000;fill-opacity:1">
	<path
   id="path2585"
   d="m 20.626,33 h -8.253 c -0.276,0 -0.5,-0.224 -0.5,-0.5 V 22.799 H 11.76 c -1.47,0 -2.665,-1.195 -2.665,-2.665 v -6.442 c 0,-1.47 1.195,-2.665 2.665,-2.665 h 9.479 c 1.47,0 2.665,1.195 2.665,2.665 v 6.442 c 0,1.469 -1.195,2.665 -2.665,2.665 H 21.126 V 32.5 c 0,0.276 -0.223,0.5 -0.5,0.5 z m -7.752,-1 h 7.253 v -9.701 c 0,-0.276 0.224,-0.5 0.5,-0.5 h 0.613 c 0.918,0 1.665,-0.747 1.665,-1.665 v -6.442 c 0,-0.918 -0.747,-1.665 -1.665,-1.665 h -9.48 c -0.918,0 -1.665,0.747 -1.665,1.665 v 6.442 c 0,0.918 0.747,1.665 1.665,1.665 h 0.613 c 0.276,0 0.5,0.224 0.5,0.5 V 32 Z"
   inkscape:connector-curvature="0"
   style="fill:#000000;fill-opacity:1" />

	<path
   id="path2587"
   d="M 16.5,9.862 C 13.781,9.862 11.569,7.65 11.569,4.931 11.569,2.212 13.781,0 16.5,0 c 2.72,0 4.932,2.212 4.932,4.931 0,2.719 -2.213,4.931 -4.932,4.931 z M 16.5,1 c -2.167,0 -3.931,1.764 -3.931,3.931 0,2.167 1.764,3.931 3.931,3.931 2.168,0 3.932,-1.764 3.932,-3.931 C 20.432,2.764 18.667,1 16.5,1 Z"
   inkscape:connector-curvature="0"
   style="fill:#000000;fill-opacity:1" />

</g>
      <g
         id="g2591"
         style="fill:#000000;fill-opacity:1">
</g>
      <g
         id="g2593"
         style="fill:#000000;fill-opacity:1">
</g>
      <g
         id="g2595"
         style="fill:#000000;fill-opacity:1">
</g>
      <g
         id="g2597"
         style="fill:#000000;fill-opacity:1">
</g>
      <g
         id="g2599"
         style="fill:#000000;fill-opacity:1">
</g>
      <g
         id="g2601"
         style="fill:#000000;fill-opacity:1">
</g>
      <g
         id="g2603"
         style="fill:#000000;fill-opacity:1">
</g>
      <g
         id="g2605"
         style="fill:#000000;fill-opacity:1">
</g>
      <g
         id="g2607"
         style="fill:#000000;fill-opacity:1">
</g>
      <g
         id="g2609"
         style="fill:#000000;fill-opacity:1">
</g>
      <g
         id="g2611"
         style="fill:#000000;fill-opacity:1">
</g>
      <g
         id="g2613"
         style="fill:#000000;fill-opacity:1">
</g>
      <g
         id="g2615"
         style="fill:#000000;fill-opacity:1">
</g>
      <g
         id="g2617"
         style="fill:#000000;fill-opacity:1">
</g>
      <g
         id="g2619"
         style="fill:#000000;fill-opacity:1">
</g>
    </g>
  </g>
</svg>
