<?xml version="1.0" encoding="UTF-8" standalone="no"?>
<!-- Generator: Adobe Illustrator 19.0.0, SVG Export Plug-In . SVG Version: 6.00 Build 0)  -->

<svg
   xmlns:dc="http://purl.org/dc/elements/1.1/"
   xmlns:cc="http://creativecommons.org/ns#"
   xmlns:rdf="http://www.w3.org/1999/02/22-rdf-syntax-ns#"
   xmlns:svg="http://www.w3.org/2000/svg"
   xmlns="http://www.w3.org/2000/svg"
   xmlns:sodipodi="http://sodipodi.sourceforge.net/DTD/sodipodi-0.dtd"
   xmlns:inkscape="http://www.inkscape.org/namespaces/inkscape"
   version="1.1"
   id="Capa_1"
   x="0px"
   y="0px"
   viewBox="0 0 47 60"
   xml:space="preserve"
   sodipodi:docname="artefact.svg"
   width="47"
   height="60"
   inkscape:version="0.92.3 (2405546, 2018-03-11)"><metadata
   id="metadata6936"><rdf:RDF><cc:Work
       rdf:about=""><dc:format>image/svg+xml</dc:format><dc:type
         rdf:resource="http://purl.org/dc/dcmitype/StillImage" /><dc:title></dc:title></cc:Work></rdf:RDF></metadata><defs
   id="defs6934" /><sodipodi:namedview
   pagecolor="#ffffff"
   bordercolor="#666666"
   borderopacity="1"
   objecttolerance="10"
   gridtolerance="10"
   guidetolerance="10"
   inkscape:pageopacity="0"
   inkscape:pageshadow="2"
   inkscape:window-width="708"
   inkscape:window-height="480"
   id="namedview6932"
   showgrid="false"
   fit-margin-top="0"
   fit-margin-left="0"
   fit-margin-right="0"
   fit-margin-bottom="0"
   inkscape:zoom="3.9333333"
   inkscape:cx="23.5"
   inkscape:cy="30"
   inkscape:window-x="67"
   inkscape:window-y="27"
   inkscape:window-maximized="0"
   inkscape:current-layer="Capa_1" />
<g
   id="g6899"
   transform="translate(-6.5)">
	<path
   d="m 42.5,22 h -25 c -0.552,0 -1,0.447 -1,1 0,0.553 0.448,1 1,1 h 25 c 0.552,0 1,-0.447 1,-1 0,-0.553 -0.448,-1 -1,-1 z"
   id="path6887"
   inkscape:connector-curvature="0" />
	<path
   d="m 17.5,16 h 10 c 0.552,0 1,-0.447 1,-1 0,-0.553 -0.448,-1 -1,-1 h -10 c -0.552,0 -1,0.447 -1,1 0,0.553 0.448,1 1,1 z"
   id="path6889"
   inkscape:connector-curvature="0" />
	<path
   d="m 42.5,30 h -25 c -0.552,0 -1,0.447 -1,1 0,0.553 0.448,1 1,1 h 25 c 0.552,0 1,-0.447 1,-1 0,-0.553 -0.448,-1 -1,-1 z"
   id="path6891"
   inkscape:connector-curvature="0" />
	<path
   d="m 42.5,38 h -25 c -0.552,0 -1,0.447 -1,1 0,0.553 0.448,1 1,1 h 25 c 0.552,0 1,-0.447 1,-1 0,-0.553 -0.448,-1 -1,-1 z"
   id="path6893"
   inkscape:connector-curvature="0" />
	<path
   d="m 42.5,46 h -25 c -0.552,0 -1,0.447 -1,1 0,0.553 0.448,1 1,1 h 25 c 0.552,0 1,-0.447 1,-1 0,-0.553 -0.448,-1 -1,-1 z"
   id="path6895"
   inkscape:connector-curvature="0" />
	<path
   d="M 38.914,0 H 6.5 v 60 h 47 V 14.586 Z M 39.5,3.414 50.086,14 H 39.5 Z M 8.5,58 V 2 h 29 v 14 h 14 v 42 z"
   id="path6897"
   inkscape:connector-curvature="0" />
</g>
<g
   id="g6901"
   transform="translate(-6.5)">
</g>
<g
   id="g6903"
   transform="translate(-6.5)">
</g>
<g
   id="g6905"
   transform="translate(-6.5)">
</g>
<g
   id="g6907"
   transform="translate(-6.5)">
</g>
<g
   id="g6909"
   transform="translate(-6.5)">
</g>
<g
   id="g6911"
   transform="translate(-6.5)">
</g>
<g
   id="g6913"
   transform="translate(-6.5)">
</g>
<g
   id="g6915"
   transform="translate(-6.5)">
</g>
<g
   id="g6917"
   transform="translate(-6.5)">
</g>
<g
   id="g6919"
   transform="translate(-6.5)">
</g>
<g
   id="g6921"
   transform="translate(-6.5)">
</g>
<g
   id="g6923"
   transform="translate(-6.5)">
</g>
<g
   id="g6925"
   transform="translate(-6.5)">
</g>
<g
   id="g6927"
   transform="translate(-6.5)">
</g>
<g
   id="g6929"
   transform="translate(-6.5)">
</g>
</svg>