<?xml version="1.0" encoding="UTF-8" standalone="no"?>
<!-- Created with Inkscape (http://www.inkscape.org/) -->

<svg
   xmlns:dc="http://purl.org/dc/elements/1.1/"
   xmlns:cc="http://creativecommons.org/ns#"
   xmlns:rdf="http://www.w3.org/1999/02/22-rdf-syntax-ns#"
   xmlns:svg="http://www.w3.org/2000/svg"
   xmlns="http://www.w3.org/2000/svg"
   xmlns:sodipodi="http://sodipodi.sourceforge.net/DTD/sodipodi-0.dtd"
   xmlns:inkscape="http://www.inkscape.org/namespaces/inkscape"
   width="12.435418mm"
   height="15.875001mm"
   viewBox="0 0 12.435418 15.875001"
   version="1.1"
   id="svg8"
   sodipodi:docname="artefact_back_trim.svg"
   inkscape:version="0.92.3 (2405546, 2018-03-11)">
  <defs
     id="defs2" />
  <sodipodi:namedview
     id="base"
     pagecolor="#ffffff"
     bordercolor="#666666"
     borderopacity="1.0"
     inkscape:pageopacity="0.0"
     inkscape:pageshadow="2"
     inkscape:zoom="5.6"
     inkscape:cx="-48.552695"
     inkscape:cy="38.220886"
     inkscape:document-units="mm"
     inkscape:current-layer="layer1"
     showgrid="false"
     inkscape:window-width="1920"
     inkscape:window-height="1052"
     inkscape:window-x="1366"
     inkscape:window-y="0"
     inkscape:window-maximized="1"
     fit-margin-top="0"
     fit-margin-left="0"
     fit-margin-right="0"
     fit-margin-bottom="0">
    <inkscape:grid
       type="xygrid"
       id="grid2484"
       spacingx="5.2916667"
       spacingy="5.2916667"
       originx="-14.492609"
       originy="-10.45533" />
  </sodipodi:namedview>
  <metadata
     id="metadata5">
    <rdf:RDF>
      <cc:Work
         rdf:about="">
        <dc:format>image/svg+xml</dc:format>
        <dc:type
           rdf:resource="http://purl.org/dc/dcmitype/StillImage" />
        <dc:title></dc:title>
      </cc:Work>
    </rdf:RDF>
  </metadata>
  <g
     inkscape:label="Layer 1"
     inkscape:groupmode="layer"
     id="layer1"
     transform="translate(-11.160182,-275.13108)">
    <g
       id="g2945"
       transform="matrix(0.26458333,0,0,0.26458333,9.4403918,275.13108)"
       style="fill:#000000;fill-opacity:1">
      <g
         id="g2884"
         style="fill:#000000;fill-opacity:1">
        <path
           id="path2872"
           d="m 42.5,22 h -25 c -0.552,0 -1,0.447 -1,1 0,0.553 0.448,1 1,1 h 25 c 0.552,0 1,-0.447 1,-1 0,-0.553 -0.448,-1 -1,-1 z"
           inkscape:connector-curvature="0"
           style="fill:#000000;fill-opacity:1" />
        <path
           id="path2874"
           d="m 17.5,16 h 10 c 0.552,0 1,-0.447 1,-1 0,-0.553 -0.448,-1 -1,-1 h -10 c -0.552,0 -1,0.447 -1,1 0,0.553 0.448,1 1,1 z"
           inkscape:connector-curvature="0"
           style="fill:#000000;fill-opacity:1" />
        <path
           id="path2876"
           d="m 42.5,30 h -25 c -0.552,0 -1,0.447 -1,1 0,0.553 0.448,1 1,1 h 25 c 0.552,0 1,-0.447 1,-1 0,-0.553 -0.448,-1 -1,-1 z"
           inkscape:connector-curvature="0"
           style="fill:#000000;fill-opacity:1" />
        <path
           id="path2878"
           d="m 42.5,38 h -25 c -0.552,0 -1,0.447 -1,1 0,0.553 0.448,1 1,1 h 25 c 0.552,0 1,-0.447 1,-1 0,-0.553 -0.448,-1 -1,-1 z"
           inkscape:connector-curvature="0"
           style="fill:#000000;fill-opacity:1" />
        <path
           id="path2880"
           d="m 42.5,46 h -25 c -0.552,0 -1,0.447 -1,1 0,0.553 0.448,1 1,1 h 25 c 0.552,0 1,-0.447 1,-1 0,-0.553 -0.448,-1 -1,-1 z"
           inkscape:connector-curvature="0"
           style="fill:#000000;fill-opacity:1" />
        <path
           id="path2882"
           d="M 38.914,0 H 6.5 v 60 h 47 V 14.586 Z M 39.5,3.414 50.086,14 H 39.5 Z M 8.5,58 V 2 h 29 v 14 h 14 v 42 z"
           inkscape:connector-curvature="0"
           style="fill:#000000;fill-opacity:1" />
      </g>
      <g
         id="g2886"
         style="fill:#000000;fill-opacity:1" />
      <g
         id="g2888"
         style="fill:#000000;fill-opacity:1" />
      <g
         id="g2890"
         style="fill:#000000;fill-opacity:1" />
      <g
         id="g2892"
         style="fill:#000000;fill-opacity:1" />
      <g
         id="g2894"
         style="fill:#000000;fill-opacity:1" />
      <g
         id="g2896"
         style="fill:#000000;fill-opacity:1" />
      <g
         id="g2898"
         style="fill:#000000;fill-opacity:1" />
      <g
         id="g2900"
         style="fill:#000000;fill-opacity:1" />
      <g
         id="g2902"
         style="fill:#000000;fill-opacity:1" />
      <g
         id="g2904"
         style="fill:#000000;fill-opacity:1" />
      <g
         id="g2906"
         style="fill:#000000;fill-opacity:1" />
      <g
         id="g2908"
         style="fill:#000000;fill-opacity:1" />
      <g
         id="g2910"
         style="fill:#000000;fill-opacity:1" />
      <g
         id="g2912"
         style="fill:#000000;fill-opacity:1" />
      <g
         id="g2914"
         style="fill:#000000;fill-opacity:1" />
    </g>
    <path
       style="fill:#000000;fill-opacity:1;stroke:#000000;stroke-width:0;stroke-linecap:butt;stroke-linejoin:miter;stroke-miterlimit:4;stroke-dasharray:none;stroke-opacity:1"
       d="m 11.160183,275.13108 h 8.576204 l 3.859213,3.85921 v 12.01579 l -11.90625,-0.52917 z"
       id="path3017"
       inkscape:connector-curvature="0" />
  </g>
</svg>
