<?xml version="1.0" encoding="UTF-8" standalone="no"?>
<svg
   xmlns:dc="http://purl.org/dc/elements/1.1/"
   xmlns:cc="http://creativecommons.org/ns#"
   xmlns:rdf="http://www.w3.org/1999/02/22-rdf-syntax-ns#"
   xmlns:svg="http://www.w3.org/2000/svg"
   xmlns="http://www.w3.org/2000/svg"
   id="svg25"
   height="512"
   width="513.14288"
   xml:space="preserve"
   version="1.1"><metadata
   id="metadata31"><rdf:RDF><cc:Work
       rdf:about=""><dc:format>image/svg+xml</dc:format><dc:type
         rdf:resource="http://purl.org/dc/dcmitype/StillImage" /></cc:Work></rdf:RDF></metadata><defs
   id="defs29" /><rect
   style="fill:none;stroke:none"
   y="0"
   x="0"
   height="100%"
   width="100%"
   id="backgroundrect" />
















<g
   id="g23"
   class="currentLayer"><title
     id="title3">Layer 1</title><g
     style="fill:#2196f3;fill-opacity:1"
     class="selected"
     id="svg_1">
	<g
   style="fill:#2196f3;fill-opacity:1"
   id="svg_2">
		<path
   style="fill:#2196f3;fill-opacity:1"
   id="svg_3"
   d="m 445.08086,55.726429 c -34.079,-16.412 -81.43,-24.733 -140.737,-24.733 -67.208,0 -142.276,20.507 -200.808,54.855 -30.429003,17.857001 -54.750003,38.254001 -72.289003,60.625001 -19.976,25.48 -30.1039998,52.215 -30.1039998,79.463 0,34.792 20.8969998,65.455 57.8859998,85.851 -0.572,3.32 -0.886,6.726 -0.886,10.206 0,33.084 26.916,60 60.000003,60 7.527,0 14.766,-1.134 21.63,-3.044 3.444,4.59 7.37,13.093 7.37,28.044 0,25.437 -35.48,36.76 -35.747,36.843 l 11.494,38.313 c 1.602,-0.481 16.076,-4.998 30.831,-15.474 21.865,-15.524 33.422,-36.161 33.422,-59.682 0,-19.833 -4.884,-34.967 -11.464,-46.071 9.843,-7.178 17.546,-14.704 22.438,-19.963 1.927,0.02 3.86,0.034 5.8,0.034 68.761,0 144.557,-17.642 202.753,-47.193 68.661,-34.864 106.473,-82.309 106.473,-133.594 0,-46.908 -23.535,-83.037001 -68.062,-104.480001 z m -326.938,286.267001 c -11.028,0 -20.000003,-8.973 -20.000003,-20 0,-11.028 8.972003,-20 20.000003,-20 15.314,0 31.084,10.385 42.075,19.992 -10.952,9.544 -26.795,20.008 -42.075,20.008 z m 270.417,-83.859 c -52.851,26.837 -121.876,42.859 -184.643,42.859 -2.61,0 -5.21,-0.021 -7.786,-0.061 -13.414,-13.891 -42.521,-38.939 -77.989,-38.939 -15.142,0 -28.981003,5.65 -39.550003,14.937 -24.25,-13.201 -37.449,-31.031 -37.449,-50.994 0,-36.285 30.12,-74.771 82.638003,-105.59 52.661,-30.903001 120.161,-49.353001 180.562,-49.353001 112.008,0 168.8,30.016001 168.8,89.213001 0,47.836 -52.994,81.888 -84.583,97.928 z" />
	</g>
</g><g
     id="svg_4">
</g><g
     id="svg_5">
</g><g
     id="svg_6">
</g><g
     id="svg_7">
</g><g
     id="svg_8">
</g><g
     id="svg_9">
</g><g
     id="svg_10">
</g><g
     id="svg_11">
</g><g
     id="svg_12">
</g><g
     id="svg_13">
</g><g
     id="svg_14">
</g><g
     id="svg_15">
</g><g
     id="svg_16">
</g><g
     id="svg_17">
</g><g
     id="svg_18">
</g></g></svg>